PathFileType	4	(X/Y/Z)	D:\TRACE\spot_10-12-23\spot_arm_body_motion_1_5-platform.trc
DataRate	CameraRate	NumFrames	NumMarkers	Units	OrigDataRate	OrigDataStartFrame	OrigNumFrames
100.00	100.00	      73	5	mm	100.00	2626	      7000
Frame#	Time	Left_Front			Right_Front			Left_Aft			Right_Aft			Post			
		X1	Y1	Z1	X2	Y2	Z2	X3	Y3	Z3	X4	Y4	Z4	X5	Y5	Z5	

2626	26.250	-815.18573	-11.10923	-657.08966	752.11511	-13.48475	-632.42780	-747.76361	27.58569	481.01746	660.49792	28.24562	583.01581	-27.04692	705.94354	-991.76172	
2627	26.260	-814.42181	-10.79641	-657.14893	752.64972	-13.37170	-632.52252	-747.05438	27.39456	481.05090	661.13483	28.06000	582.79572	-26.31766	706.08533	-991.38043	
2628	26.270	-813.60614	-10.52827	-657.02222	753.53363	-12.82217	-632.45459	-746.44360	27.39040	481.04984	661.78357	27.85114	582.80627	-25.52565	706.26746	-990.94940	
2629	26.280	-812.91034	-10.45533	-656.81464	754.20837	-12.67562	-632.39087	-745.50085	27.39161	480.94724	662.48181	27.65771	582.82922	-24.80289	707.02850	-990.80908	
2630	26.290	-812.28607	-10.10410	-656.74976	755.01434	-12.45885	-632.33423	-744.68298	27.16221	481.03400	663.17218	27.64102	583.08386	-24.20426	707.19812	-990.61426	
2631	26.300	-811.52960	-9.91274	-656.87317	755.76086	-12.18305	-632.29193	-743.96948	27.03215	481.11261	664.01355	27.45148	583.16400	-23.48253	707.48883	-990.61438	
2632	26.310	-810.70758	-9.73847	-656.83472	756.51385	-11.90983	-632.21820	-743.24115	26.74837	481.22797	664.75085	27.24383	583.21558	-22.48655	707.70172	-990.52582	
2633	26.320	-809.90729	-9.53613	-656.73810	757.19055	-11.93422	-632.24243	-742.40240	26.54547	481.19702	665.58667	27.01472	583.29926	-21.55905	707.97125	-990.36224	
2634	26.330	-808.96149	-9.19276	-656.53052	758.04065	-11.68608	-632.17627	-741.66968	26.44626	481.25140	666.40625	26.87129	583.44025	-20.95738	708.41119	-990.22443	
2635	26.340	-808.30194	-8.96281	-656.58734	758.86255	-11.29288	-632.03278	-740.80176	26.41197	481.38297	667.10699	26.80064	583.56970	-20.29373	708.63788	-990.04486	
2636	26.350	-807.57947	-8.73458	-656.64410	759.48578	-11.03865	-632.06622	-740.12213	26.33061	481.45810	667.87927	26.66124	583.44055	-19.59566	709.11462	-989.76782	
2637	26.360	-807.05353	-8.28744	-656.60883	760.23480	-10.99535	-632.09222	-739.29974	26.13913	481.60623	668.73865	26.41626	583.57910	-18.73382	709.27063	-989.33435	
2638	26.370	-805.91431	-8.14491	-656.43640	761.09131	-10.91896	-631.91809	-738.49512	25.97890	481.65936	669.64349	26.18717	583.65558	-17.72096	709.63257	-988.79547	
2639	26.380	-804.61426	-8.51675	-656.64398	761.97760	-10.77876	-631.96698	-737.61835	25.81059	481.59436	670.55682	25.99905	583.62775	-16.99926	709.98456	-988.46246	
2640	26.390	-804.17981	-8.02014	-656.38538	762.71307	-10.43633	-632.03687	-736.94611	25.59144	481.66229	671.19867	25.91744	583.62671	-16.25999	710.29053	-988.10132	
2641	26.400	-803.59290	-7.59200	-656.33447	763.30023	-10.58974	-632.06348	-736.08221	25.38214	481.77768	672.06659	25.68482	583.63153	-15.25418	710.58020	-987.55225	
2642	26.410	-802.61938	-7.29166	-656.30371	764.10443	-10.45315	-632.00934	-735.11267	25.36049	481.76083	672.85370	25.46542	583.81555	-14.54613	710.82172	-987.30084	
2643	26.420	-801.60602	-7.39088	-656.17249	765.17957	-9.94267	-631.89362	-734.22687	25.28158	481.87344	673.68280	25.33187	583.89020	-13.76969	711.34991	-986.98859	
2644	26.430	-800.88373	-7.15999	-655.99133	766.00793	-9.56294	-631.86768	-733.35895	24.99032	482.00406	674.55475	25.09628	584.09357	-12.79392	711.68250	-986.57104	
2645	26.440	-799.93402	-6.87300	-656.07983	767.09906	-9.20370	-631.80096	-732.77374	24.75922	482.12250	675.50531	24.96120	584.21271	-11.82173	712.14709	-986.37140	
2646	26.450	-798.96716	-6.62291	-656.09937	767.78094	-8.94624	-631.73895	-731.64313	24.70168	482.19550	676.43573	24.86089	584.26221	-10.96833	712.65417	-986.27722	
2647	26.460	-798.05127	-6.28444	-655.92053	768.63330	-8.60328	-631.57483	-730.59088	24.34103	482.29852	677.43719	24.52597	584.32941	-10.21741	713.02191	-986.07703	
2648	26.470	-797.23065	-5.95561	-655.69879	769.66467	-8.25148	-631.54279	-729.86536	24.18273	482.40134	678.19061	24.24579	584.38074	-9.34410	713.43036	-985.74237	
2649	26.480	-796.42395	-5.70350	-655.75165	770.58240	-7.99318	-631.57513	-729.00116	23.93960	482.62454	679.14941	24.00913	584.53394	-8.52104	713.97913	-985.39368	
2650	26.490	-795.59778	-5.27149	-655.78351	771.46625	-7.55074	-631.48962	-727.99634	23.73877	482.59647	680.16528	23.79274	584.69458	-7.49719	714.44501	-984.98743	
2651	26.500	-794.38196	-4.84213	-655.66901	772.40649	-7.25485	-631.27313	-727.11383	23.60789	482.70468	680.85101	23.51667	584.75494	-6.48586	714.81732	-984.60553	
2652	26.510	-793.52228	-4.45956	-655.54218	773.45111	-6.81983	-631.07178	-726.08624	23.40328	482.78366	681.82471	23.25672	584.81866	-5.78885	715.20142	-983.76410	
2653	26.520	-792.66052	-4.21254	-655.43707	774.30206	-6.67540	-631.08960	-725.48431	23.22158	482.81189	682.85126	22.95527	584.74841	-4.79222	715.95605	-983.59436	
2654	26.530	-791.96088	-3.94335	-655.44806	775.23743	-6.41751	-630.89734	-724.33594	22.84313	482.97696	683.63092	22.69395	584.83405	-3.76519	716.34546	-982.86676	
2655	26.540	-790.91907	-3.77058	-655.26953	776.34351	-6.04832	-630.75671	-723.45081	22.65480	483.09134	684.52905	22.45942	585.17853	-2.93031	716.76837	-982.32324	
2656	26.550	-789.85852	-3.51483	-655.08240	777.32666	-5.52431	-630.79669	-722.53027	22.54698	483.18121	685.64972	22.29934	585.26990	-1.95675	717.12219	-981.73828	
2657	26.560	-788.83643	-3.22917	-655.13849	778.22070	-5.29468	-630.73199	-721.38525	22.34006	483.27634	686.57861	22.14666	585.29126	-1.00787	717.66595	-981.18591	
2658	26.570	-787.99164	-2.79510	-655.07074	779.11652	-5.01578	-630.62964	-720.85046	22.03504	483.33365	687.49573	21.81561	585.38025	-0.06752	718.36108	-980.77344	
2659	26.580	-787.11621	-2.54328	-654.98499	780.08771	-4.66853	-630.48511	-719.56775	21.68632	483.47375	688.45844	21.49127	585.47894	2.79119	717.55359	-981.40033	
2660	26.590	-786.03107	-2.30103	-654.80536	781.09857	-4.29945	-630.42206	-718.60181	21.48799	483.57303	689.30396	21.23561	585.52838	1.71659	719.19061	-980.02954	
2661	26.600	-785.21576	-1.65037	-654.70886	781.92731	-3.93660	-630.35895	-717.78522	21.32441	483.63864	690.35840	20.95363	585.64484	2.75228	719.90009	-979.68823	
2662	26.610	-784.41339	-1.10157	-654.71466	783.01221	-3.43765	-630.21484	-716.72925	21.08619	483.75293	691.30658	20.66351	585.80475	3.79769	720.44403	-979.52985	
2663	26.620	-783.22266	-0.70655	-654.68884	783.94702	-2.99770	-630.22333	-715.87024	20.86115	484.01276	692.18994	20.22009	585.74579	4.69562	721.00067	-979.18597	
2664	26.630	-782.09338	-0.51576	-654.42938	784.86145	-2.67425	-630.07520	-714.87811	20.42114	484.17303	693.16327	19.83052	585.90308	5.67288	721.56940	-978.82739	
2665	26.640	-781.38147	-0.13970	-654.33765	785.77502	-2.28092	-629.92145	-713.82642	20.29836	484.15094	694.06805	19.50199	585.99750	6.59565	722.11060	-978.15118	
2666	26.650	-780.44421	0.42132	-654.28082	786.84076	-1.79121	-629.83423	-713.02728	19.99209	484.17136	695.07965	19.08827	586.08362	7.63008	722.76495	-977.76495	
2667	26.660	-779.37067	0.70812	-654.30469	787.79572	-1.35836	-629.72845	-712.06323	19.62416	484.47333	695.98907	18.88619	586.16364	8.39514	723.41498	-977.09100	
2668	26.670	-778.42462	0.99006	-653.96606	788.85242	-0.99241	-629.64050	-710.86084	19.36538	484.51456	697.12628	18.67209	586.46710	9.61472	724.08075	-976.30908	
2669	26.680	-777.40112	1.39940	-653.89832	789.77747	-0.55236	-629.50970	-709.94336	19.14876	484.51312	697.97711	18.30673	586.52081	10.44968	724.63586	-975.60925	
2670	26.690	-776.47174	1.80919	-653.92841	790.67499	-0.12911	-629.43140	-709.16437	18.90416	484.59369	698.83179	17.96943	586.62872	11.33325	725.22021	-974.73566	
2671	26.700	-775.51099	2.23763	-653.79651	791.73083	0.29394	-629.21021	-708.18701	18.50140	484.63007	699.88287	17.59433	586.81396	12.18550	725.76117	-974.06689	
2672	26.710	-774.51941	2.57689	-653.54987	792.78851	0.65340	-629.05505	-707.17517	18.17439	484.85657	700.81268	17.26339	586.89886	15.34185	725.39172	-974.49261	
2673	26.720	-773.59583	3.23574	-653.59998	793.65527	1.07961	-629.11884	-706.19952	17.93003	485.03329	701.76892	17.03541	587.08429	14.24622	727.16418	-972.85663	
2674	26.730	-772.63202	3.63472	-653.71167	794.62280	1.58191	-628.95703	-705.15857	17.68292	485.01492	702.95227	16.71309	587.14630	15.09162	727.86786	-972.44574	
2675	26.740	-771.73041	4.19020	-653.42120	795.63257	1.99043	-628.85089	-704.30566	17.33657	485.13135	703.82080	16.38713	587.24078	16.02342	728.59613	-971.94025	
2676	26.750	-770.73926	4.48553	-653.06415	796.54919	2.45149	-628.77863	-703.26367	16.96350	485.27075	704.83160	15.94916	587.33496	17.05928	729.13342	-971.40106	
2677	26.760	-769.60333	4.67390	-653.10760	797.50012	2.61954	-628.56616	-702.23981	16.61857	485.39679	705.74207	15.70637	587.39954	18.08135	729.79382	-970.98853	
2678	26.770	-768.67834	5.23722	-652.97449	798.62109	3.31681	-628.44250	-701.43573	16.47838	485.44965	706.75281	15.32086	587.55841	18.96262	730.38855	-970.55798	
2679	26.780	-767.93182	5.76776	-652.92627	799.57886	3.91916	-628.38922	-700.36346	16.19197	485.67645	707.77002	14.99037	587.69885	1.19429	663.26489	-981.43475	
2680	26.790	-766.74707	6.19044	-652.71912	800.37061	4.24124	-628.28156	-699.58118	15.91063	485.73392	708.74585	14.57148	587.86157	20.75049	731.67578	-969.57416	
2681	26.800	-765.72308	6.69705	-652.93042	801.24097	4.71525	-628.16309	-698.53021	15.53059	485.91428	709.68066	14.17538	587.99707	21.89195	732.40967	-968.91241	
2682	26.810	-765.31763	7.34798	-652.61255	802.37122	5.23679	-628.08112	-697.50983	15.15424	486.04803	710.52496	13.86620	588.11487	22.62908	733.13916	-968.20648	
2683	26.820	-764.04456	7.86346	-652.44128	803.33154	5.65463	-627.84119	-696.73706	14.89134	486.24448	711.58093	13.52410	588.23163	23.47038	733.81976	-967.53644	
2684	26.830	-762.96692	8.06392	-652.27405	804.23138	6.08823	-627.77448	-695.61511	14.63490	486.42307	712.34473	13.16707	588.29492	24.66863	734.49231	-966.56104	
2685	26.840	-762.08368	8.54616	-652.08838	805.15710	6.64409	-627.72437	-694.79626	14.24062	486.47284	713.26660	12.66121	588.41711	13.60919	710.76874	-975.58875	
2686	26.850	-760.82196	8.58347	-652.39441	806.01440	7.26235	-627.58954	-693.98206	13.85538	486.55142	714.09979	12.22202	588.58521	26.46569	735.83154	-965.23486	
2687	26.860	-760.48553	9.09891	-651.98682	806.69592	7.52103	-627.65973	-692.86511	13.59190	486.77286	715.01086	11.91963	588.81097	27.14571	736.52472	-964.61279	
2688	26.870	-759.22711	9.51452	-651.73004	807.91284	7.95422	-627.34076	-691.98383	13.30812	486.86316	716.05969	11.47373	588.67249	28.23683	737.37207	-963.86932	
2689	26.880	-758.45410	10.42204	-651.65088	808.98499	8.57908	-627.15784	-691.01312	12.92615	487.03021	717.07654	11.12136	589.13824	29.38596	737.97363	-963.28357	
2690	26.890	-757.77771	11.28461	-651.46143	809.81671	9.20631	-627.05957	-690.14453	12.42517	487.16724	717.91620	10.65680	589.22125	30.03487	738.87463	-962.75793	
2691	26.900	-756.84021	11.56796	-651.45886	810.58112	9.57944	-626.86035	-689.43042	11.92946	487.34302	718.72803	10.20951	589.19135	31.06553	739.54730	-962.05499	
2692	26.910	-755.66833	11.82430	-651.22028	811.49982	10.26287	-626.80206	-688.55414	11.77194	487.41089	719.61572	9.70686	589.31061	31.85860	740.43311	-961.54498	
2693	26.920	-754.91760	12.26195	-651.03387	812.25818	10.73295	-626.64471	-687.59357	11.37425	487.65506	720.34387	9.37021	589.57397	32.66735	741.24835	-960.96918	
2694	26.930	-754.16748	12.87481	-650.91113	813.14191	11.27142	-626.47723	-686.75269	10.87107	487.87296	721.25714	8.97764	589.60431	33.66831	741.92163	-960.14941	
2695	26.940	-752.95551	13.14374	-651.25330	814.08344	11.79959	-626.35083	-685.91980	10.60511	487.78339	722.17694	8.50555	589.77307	34.28182	742.78906	-959.63354	
2696	26.950	-752.41998	13.95157	-650.80542	815.02344	12.23242	-626.20636	-685.13586	10.31966	487.86551	723.02539	8.13458	589.81830	35.09968	743.46484	-958.59760	
2697	26.960	-751.49188	14.33610	-650.46973	815.66095	12.51186	-626.05756	-684.17249	9.98701	488.17682	723.72430	7.79306	590.17517	35.98557	744.03235	-957.86737	
2698	26.970	-750.71466	14.79574	-650.40002	816.60767	13.18275	-626.01843	-683.25934	9.66399	488.19479	724.65192	7.35892	590.30872	48.75114	695.46033	-965.68402	
